<svg xmlns="http://www.w3.org/2000/svg" xmlns:xlink="http://www.w3.org/1999/xlink" width="1757" height="374" viewBox="0 0 1757 374">
  <defs>
    <clipPath id="clip-path">
      <rect id="Rectangle_1701" data-name="Rectangle 1701" width="1757" height="374" transform="translate(81 456)" fill="#1c1c1c"/>
    </clipPath>
  </defs>
  <g id="Mask_Group_18" data-name="Mask Group 18" transform="translate(-81 -456)" clip-path="url(#clip-path)">
    <g id="not_verified_yet" data-name="not verified yet" transform="translate(501.921 456)">
      <path id="Path_1095" data-name="Path 1095" d="M740.391,388.816a10.9,10.9,0,0,1,14.748,6.848,10.507,10.507,0,0,1,.317,1.421l43.518,21.58,10.071-6.674,12.531,14.426L806.2,438.906a11.042,11.042,0,0,1-13.174.508l-44.153-30.533a10.418,10.418,0,0,1-1.005.367,10.9,10.9,0,0,1-13.876-8.479,10.606,10.606,0,0,1-.161-1.327,10.93,10.93,0,0,1,6.562-10.626Z" transform="translate(-136.679 -258.694)" fill="#ffb8b8"/>
      <path id="Path_1096" data-name="Path 1096" d="M200.855,455.821a6.438,6.438,0,0,0,6.438,6.438H217.8l1.873,3.395V616.271a6.438,6.438,0,1,0,12.876,0V462.259H585.044l.1,154.012a6.438,6.438,0,1,0,12.876,0V462.259h11.39a6.438,6.438,0,1,0,0-12.876H207.293a6.438,6.438,0,0,0-6.438,6.438Z" transform="translate(-136.679 -258.694)" fill="#e5e5e5"/>
      <path id="Path_1097" data-name="Path 1097" d="M348.331,546.843v-23.77a3.962,3.962,0,0,0-3.962-3.962H254.24a3.962,3.962,0,0,0-3.962,3.962v23.77Z" transform="translate(-136.679 -258.694)" fill="#e5e5e5"/>
      <rect id="Rectangle_1702" data-name="Rectangle 1702" width="98.053" height="30.703" transform="translate(113.599 297.063)" fill="#e5e5e5"/>
      <path id="Path_1098" data-name="Path 1098" d="M250.279,595.374v23.77a3.962,3.962,0,0,0,3.962,3.962h90.129a3.962,3.962,0,0,0,3.962-3.962v-23.77Z" transform="translate(-136.679 -258.694)" fill="#e5e5e5"/>
      <circle id="Ellipse_29" data-name="Ellipse 29" cx="2.971" cy="2.971" r="2.971" transform="translate(160.149 272.303)" fill="#fff"/>
      <circle id="Ellipse_30" data-name="Ellipse 30" cx="2.971" cy="2.971" r="2.971" transform="translate(160.149 311.92)" fill="#fff"/>
      <circle id="Ellipse_31" data-name="Ellipse 31" cx="2.971" cy="2.971" r="2.971" transform="translate(159.99 350.698)" fill="#fff"/>
      <path id="Path_1099" data-name="Path 1099" d="M231.76,441v7.864a1.633,1.633,0,0,0,1.724,1.515H264.6a1.922,1.922,0,0,0,.852-.2l7.854-3.932a1.431,1.431,0,0,0,0-2.635l-7.854-3.932a1.923,1.923,0,0,0-.852-.2H233.484A1.633,1.633,0,0,0,231.76,441Z" transform="translate(-136.679 -258.694)" fill="#3f3d56"/>
      <path id="Path_1100" data-name="Path 1100" d="M233.484,439.483h6.2v10.895h-6.2a1.633,1.633,0,0,1-1.724-1.515V441a1.633,1.633,0,0,1,1.723-1.515Z" transform="translate(-136.679 -258.694)" fill="#e95f71"/>
      <path id="Path_1101" data-name="Path 1101" d="M979.974,536.761a24.508,24.508,0,0,1-23.666-4.169c-8.289-6.957-10.888-18.419-13-29.033l-6.255-31.392,13.095,9.017c9.417,6.484,19.046,13.176,25.567,22.568s9.366,22.213,4.128,32.376" transform="translate(-136.679 -258.694)" fill="#e6e6e6"/>
      <path id="Path_1102" data-name="Path 1102" d="M978.855,574.768c1.325-9.654,2.688-19.432,1.758-29.19-.826-8.666-3.469-17.13-8.852-24.07a40.04,40.04,0,0,0-10.273-9.309c-1.027-.648-1.973.98-.95,1.625A38.065,38.065,0,0,1,975.6,531.992c3.278,8.338,3.8,17.427,3.24,26.284-.342,5.356-1.066,10.677-1.8,15.992a.975.975,0,0,0,.657,1.158.947.947,0,0,0,1.158-.657Z" transform="translate(-136.679 -258.694)" fill="#f2f2f2"/>
      <path id="Path_1103" data-name="Path 1103" d="M966.09,557.685A18.041,18.041,0,0,1,950.37,565.8c-7.957-.378-14.591-5.932-20.563-11.2L912.144,539l11.69-.559c8.407-.4,17.031-.778,25.038,1.815s15.392,8.832,16.856,17.12" transform="translate(-136.679 -258.694)" fill="#e6e6e6"/>
      <path id="Path_1104" data-name="Path 1104" d="M982.6,580.318c-6.379-11.288-13.779-23.833-27-27.842a30.13,30.13,0,0,0-11.357-1.173c-1.206.1-.9,1.963.3,1.859a27.991,27.991,0,0,1,18.123,4.795c5.11,3.478,9.089,8.314,12.457,13.442,2.063,3.141,3.91,6.415,5.758,9.685.591,1.045,2.317.291,1.719-.767Z" transform="translate(-136.679 -258.694)" fill="#f2f2f2"/>
      <path id="Path_1105" data-name="Path 1105" d="M992.826,592.2a13.661,13.661,0,0,0-8.371-11.442v-6.526H973.51v6.731a13.654,13.654,0,0,0-7.915,11.236l-2.574,29.917H995.4Z" transform="translate(-136.679 -258.694)" fill="#f2f2f2"/>
      <path id="Path_1106" data-name="Path 1106" d="M136.679,623.171a.99.99,0,0,1,.99-.99l913.536.36c.547,0,.63.083.63.63a.99.99,0,0,1-.99.99H137.67A.99.99,0,0,1,136.679,623.171Z" transform="translate(-136.679 -258.694)" fill="#ccc"/>
      <path id="Path_1107" data-name="Path 1107" d="M373.671,448.319l3.251-1.369,2.23-16.3h29.7l2.417,16.232,2.909,1.454a.691.691,0,0,1-.309,1.309H373.939a.691.691,0,0,1-.267-1.327Z" transform="translate(-136.679 -258.694)" fill="#e6e6e6"/>
      <path id="Path_1108" data-name="Path 1108" d="M318.006,429.93V409.355H469.673v20.574a2.891,2.891,0,0,1-2.884,2.891H320.89a2.891,2.891,0,0,1-2.884-2.89Z" transform="translate(-136.679 -258.694)" fill="#ccc"/>
      <path id="Path_1109" data-name="Path 1109" d="M317.854,331.049a3.489,3.489,0,0,1,3.485-3.484H466.322a3.489,3.489,0,0,1,3.485,3.484v88.03H317.854Z" transform="translate(-136.679 -258.694)" fill="#3f3d56"/>
      <path id="Path_1110" data-name="Path 1110" d="M324.243,410V336.64a2.689,2.689,0,0,1,2.686-2.686h133.8a2.69,2.69,0,0,1,2.686,2.686V410a2.689,2.689,0,0,1-2.686,2.686H326.93A2.689,2.689,0,0,1,324.243,410Z" transform="translate(-136.679 -258.694)" fill="#fff"/>
      <path id="Path_1111" data-name="Path 1111" d="M606.242,258.693h134.1V418.806h-134.1Z" transform="translate(-136.679 -258.694)" fill="#fff"/>
      <path id="Path_1112" data-name="Path 1112" d="M606.242,258.693h134.1V418.806h-134.1Zm131.729,2.366H608.607V416.44H737.971Z" transform="translate(-136.679 -258.694)" fill="#e5e5e5"/>
      <rect id="Rectangle_1703" data-name="Rectangle 1703" width="93.802" height="3.625" transform="translate(489.709 77.535)" fill="#f1f1f1"/>
      <path id="Path_1113" data-name="Path 1113" d="M573.424,55.866h1.022V19.194H538.411v1.023h35.013Z" fill="#cbcbcb"/>
      <path id="Path_1114" data-name="Path 1114" d="M501.354,59.231h36.035V58.209H502.376V22.559h-1.022Z" fill="#cbcbcb"/>
      <rect id="Rectangle_1704" data-name="Rectangle 1704" width="93.802" height="3.625" transform="translate(489.709 86.987)" fill="#f1f1f1"/>
      <rect id="Rectangle_1705" data-name="Rectangle 1705" width="93.802" height="3.625" transform="translate(489.709 96.438)" fill="#f1f1f1"/>
      <rect id="Rectangle_1706" data-name="Rectangle 1706" width="93.802" height="3.625" transform="translate(489.709 113.071)" fill="#f1f1f1"/>
      <rect id="Rectangle_1707" data-name="Rectangle 1707" width="93.802" height="3.625" transform="translate(489.709 122.523)" fill="#f1f1f1"/>
      <rect id="Rectangle_1708" data-name="Rectangle 1708" width="93.802" height="3.625" transform="translate(489.709 131.974)" fill="#f1f1f1"/>
      <path id="Path_1115" data-name="Path 1115" d="M666.169,287.847l.946-1.158-1.425-1.622-1.27.788a7.079,7.079,0,0,0-2.474-1.248l-.164-1.627-2.154-.139-.362,1.548a7.083,7.083,0,0,0-2.869.958l-1.07-.874L653.7,285.9l.729,1.174a7.08,7.08,0,0,0-1.32,2.722l-1.582.16-.139,2.154,1.592.373a7.078,7.078,0,0,0,.928,2.63l-.874,1.07,1.425,1.622,1.174-.729a7.081,7.081,0,0,0,2.554,1.278l.17,1.689,2.154.139.383-1.638a7.082,7.082,0,0,0,2.76-.938l1.158.945,1.622-1.425-.788-1.27a7.085,7.085,0,0,0,1.287-2.617l1.674-.169.14-2.154-1.653-.387a7.084,7.084,0,0,0-.929-2.681Zm-2.257,7.954a5.758,5.758,0,1,1,.526-8.126,5.758,5.758,0,0,1-.526,8.126Z" transform="translate(-136.679 -258.694)" fill="#e95f71"/>
      <path id="Path_1116" data-name="Path 1116" d="M679.095,303.512l1.3-.729-.729-2.032-1.47.267a7.081,7.081,0,0,0-1.843-2.069l.445-1.574-1.953-.921-.905,1.307a7.084,7.084,0,0,0-3.02-.163l-.674-1.206-2.032.729.247,1.36a7.082,7.082,0,0,0-2.227,2.047l-1.53-.433-.921,1.952,1.344.931a7.078,7.078,0,0,0-.1,2.787l-1.206.674.729,2.032,1.36-.247a7.081,7.081,0,0,0,1.906,2.127l-.462,1.634,1.953.921.958-1.383a7.083,7.083,0,0,0,2.912.141l.729,1.3,2.032-.729-.267-1.471a7.084,7.084,0,0,0,2.158-1.961l1.619.458.921-1.953-1.4-.967a7.083,7.083,0,0,0,.122-2.834Zm-5.021,6.569a5.758,5.758,0,1,1,3.474-7.364,5.758,5.758,0,0,1-3.474,7.364Z" transform="translate(-136.679 -258.694)" fill="#e95f71"/>
      <path id="Path_1117" data-name="Path 1117" d="M695.065,294.191l.9-1.194-1.489-1.564-1.237.838a7.081,7.081,0,0,0-2.522-1.148l-.229-1.619-2.158-.053-.3,1.561a7.083,7.083,0,0,0-2.829,1.072l-1.1-.831-1.564,1.488.775,1.144a7.08,7.08,0,0,0-1.21,2.772l-1.574.223-.053,2.158,1.606.309a7.08,7.08,0,0,0,1.032,2.591l-.831,1.1,1.488,1.564,1.144-.775a7.082,7.082,0,0,0,2.6,1.175l.238,1.681,2.158.053.318-1.653a7.082,7.082,0,0,0,2.721-1.048l1.194.9,1.564-1.488-.838-1.237a7.083,7.083,0,0,0,1.181-2.666l1.666-.236.053-2.158-1.668-.32a7.083,7.083,0,0,0-1.035-2.642Zm-1.937,8.038a5.758,5.758,0,1,1,.2-8.14,5.758,5.758,0,0,1-.2,8.14Z" transform="translate(-136.679 -258.694)" fill="#e95f71"/>
      <path id="Path_1118" data-name="Path 1118" d="M411.342,379.706l3.842-.305.477-5.547-3.733-.957a18.259,18.259,0,0,0-2.092-6.832l2.736-3.209-3.585-4.259-3.528,2.088a18.266,18.266,0,0,0-6.9-3.633l-.282-3.552-5.547-.477-.885,3.452a18.26,18.26,0,0,0-7.422,2.4l-3.119-2.66-4.26,3.585,2.148,3.629a18.254,18.254,0,0,0-3.241,6.422l-3.552.282-.477,5.547,3.452.885a18.263,18.263,0,0,0,2.178,7.035l-2.841,3.332,3.585,4.26,3.734-2.21a18.265,18.265,0,0,0,6.673,3.465l.306,3.842,5.547.477.957-3.733a18.269,18.269,0,0,0,7.167-2.274l3.3,2.816,4.26-3.585-2.23-3.768A18.265,18.265,0,0,0,411.342,379.706ZM392.506,389.7a14.848,14.848,0,1,1,16.066-13.521A14.848,14.848,0,0,1,392.506,389.7Z" transform="translate(-136.679 -258.694)" fill="#e95f71"/>
      <path id="Path_1119" data-name="Path 1119" d="M831.03,521.681H783.479c0,1.367-49.006,2.476-49.006,2.476a12.731,12.731,0,0,0-2.09,1.981,12.292,12.292,0,0,0-2.873,7.924v1.981a12.385,12.385,0,0,0,12.38,12.38h89.139a12.391,12.391,0,0,0,12.38-12.38v-1.981A12.4,12.4,0,0,0,831.03,521.681Z" transform="translate(-136.679 -258.694)" fill="#3f3d56"/>
      <rect id="Rectangle_1709" data-name="Rectangle 1709" width="12.876" height="83.196" transform="translate(642.626 289.237)" fill="#3f3d56"/>
      <path id="Path_1120" data-name="Path 1120" d="M742.66,630.674c0,1.391,19.511.538,43.579.538s43.579.853,43.579-.538-19.511-12.423-43.579-12.423S742.66,629.283,742.66,630.674Z" transform="translate(-136.679 -258.694)" fill="#3f3d56"/>
      <path id="Path_1121" data-name="Path 1121" d="M617.6,362.23H605.461l-5.777-31.493H617.6Z" fill="#ffb8b8"/>
      <path id="Path_1122" data-name="Path 1122" d="M757.379,632.693H718.227v-.5a15.239,15.239,0,0,1,15.239-15.239H757.38Z" transform="translate(-136.679 -258.694)" fill="#2f2e41"/>
      <path id="Path_1123" data-name="Path 1123" d="M736.122,601.394l-24.207-54.283a19.894,19.894,0,0,1,8.734-25.537l52.506-28.156,23.96-2.038,22.1-2.009.159.27c.2.344,4.956,8.552,1.744,17.552-2.437,6.827-8.774,12.159-18.837,15.849-23.487,8.612-50.62,15.973-61.2,18.737a3.418,3.418,0,0,0-2.19,1.743,3.465,3.465,0,0,0-.194,2.772l22.489,50.526a4.457,4.457,0,0,1-3.773,5.972l-16.8,1.224q-.214.02-.426.02A4.454,4.454,0,0,1,736.122,601.394Z" transform="translate(-136.679 -258.694)" fill="#2f2e41"/>
      <path id="Path_1124" data-name="Path 1124" d="M625.526,362.23H613.385l-5.777-31.493h17.921Z" fill="#ffb8b8"/>
      <path id="Path_1125" data-name="Path 1125" d="M765.3,632.693H726.151v-.5a15.239,15.239,0,0,1,15.239-15.239H765.3Z" transform="translate(-136.679 -258.694)" fill="#2f2e41"/>
      <path id="Path_1126" data-name="Path 1126" d="M745.036,604.365l-24.207-54.283a19.894,19.894,0,0,1,8.734-25.537l52.506-28.156,23.96-2.038,17.311-1.5,0-.237c.2.344,4.956,8.552,1.744,17.552-2.436,6.827-3.822,12.159-13.885,15.849-23.487,8.612-50.62,15.973-61.2,18.737a3.418,3.418,0,0,0-2.19,1.743,3.465,3.465,0,0,0-.194,2.772l22.489,50.526a4.457,4.457,0,0,1-3.773,5.971l-16.8,1.224q-.214.02-.426.02a4.454,4.454,0,0,1-4.067-2.641Z" transform="translate(-136.679 -258.694)" fill="#2f2e41"/>
      <path id="Path_1127" data-name="Path 1127" d="M790.655,493.84c-1.161-.821-17.828,7.923-20.8.99,13.866-34.665,4.311-49.634,12.8-69.513a24.753,24.753,0,0,1,16.408-14.044l22.036-1.112.114.055A25.756,25.756,0,0,1,835.3,437.541c-.078,21.634-13.022,38.134-8.5,53.826a5.072,5.072,0,0,1-.479,3.945,4.837,4.837,0,0,1-3.086,2.287l-29.1-3.881a4.917,4.917,0,0,1-3.978-.77Z" transform="translate(-136.679 -258.694)" fill="#e95f71"/>
      <circle id="Ellipse_32" data-name="Ellipse 32" cx="24.326" cy="24.326" r="24.326" transform="translate(652.746 94.585)" fill="#ffb8b8"/>
      <path id="Path_1128" data-name="Path 1128" d="M767.8,460.038l-42.266-33.344a10.422,10.422,0,0,1-1.026.3,10.922,10.922,0,0,1-8.734-1.675A10.895,10.895,0,1,1,732.625,413.9a10.467,10.467,0,0,1,.227,1.438l42.075,24.273L785.4,433.58,797,448.766l-16.257,11.587a10.837,10.837,0,0,1-12.934-.315Z" transform="translate(-136.679 -258.694)" fill="#ffb8b8"/>
      <path id="Path_1129" data-name="Path 1129" d="M802.153,453.495l-24.116-16.4,11.333-16.052a11.061,11.061,0,0,1,13.8-3.605h0A11.061,11.061,0,0,1,809,430.594Z" transform="translate(-136.679 -258.694)" fill="#e95f71"/>
      <path id="Path_1130" data-name="Path 1130" d="M821.5,399.932c-1.292.566-3.939-9.733-2.754-11.793,1.763-3.063,1.659-3.041,2.829-5.068s1.432-4.8-.083-6.584-5.023-1.547-5.715.689c.445-4.247-3.756-7.661-7.916-8.62s-8.55-.364-12.734-1.217c-4.855-.991-9.907-5.061-7.97-10.4a7.519,7.519,0,0,1,1.467-2.411c2.238-2.517,5.369-3.591,8.431-4.63,6.368-2.162,12.911-4.35,19.632-4.112a28.522,28.522,0,0,1,25.2,18.431,25.9,25.9,0,0,1,1.073,3.987c2.307,12.4-4.9,24.64-16.6,29.363Z" transform="translate(-136.679 -258.694)" fill="#2f2e41"/>
      <path id="Path_1131" data-name="Path 1131" d="M476.019,533.973v1.981a12.391,12.391,0,0,0,12.38,12.38h89.139a12.385,12.385,0,0,0,12.38-12.38v-1.981a12.291,12.291,0,0,0-2.873-7.923,12.739,12.739,0,0,0-2.09-1.981s-49.006-1.109-49.006-2.476H488.4A12.4,12.4,0,0,0,476.019,533.973Z" transform="translate(-136.679 -258.694)" fill="#3f3d56"/>
      <rect id="Rectangle_1710" data-name="Rectangle 1710" width="12.876" height="83.196" transform="translate(390.568 289.149)" fill="#3f3d56"/>
      <path id="Path_1132" data-name="Path 1132" d="M533.191,618.163c-24.068,0-43.579,11.032-43.579,12.423s19.511.538,43.579.538,43.579.853,43.579-.538S557.258,618.163,533.191,618.163Z" transform="translate(-136.679 -258.694)" fill="#3f3d56"/>
      <path id="Path_1133" data-name="Path 1133" d="M439.514,329.006h17.921L451.658,360.5H439.516Z" fill="#ffb8b8"/>
      <path id="Path_1134" data-name="Path 1134" d="M573.1,615.227h23.914a15.239,15.239,0,0,1,15.239,15.239v.5H573.1Z" transform="translate(-136.679 -258.694)" fill="#2f2e41"/>
      <path id="Path_1135" data-name="Path 1135" d="M590.289,602.3q-.212,0-.426-.02l-16.8-1.224a4.457,4.457,0,0,1-3.773-5.972l22.489-50.526a3.465,3.465,0,0,0-.194-2.772,3.419,3.419,0,0,0-2.19-1.743c-10.575-2.764-37.708-10.125-61.2-18.737-10.063-3.69-16.4-9.022-18.837-15.849-3.212-9,1.54-17.208,1.744-17.552l.159-.27,22.1,2.009,23.96,2.038,52.506,28.156a19.894,19.894,0,0,1,8.734,25.537l-24.207,54.283A4.454,4.454,0,0,1,590.289,602.3Z" transform="translate(-136.679 -258.694)" fill="#2f2e41"/>
      <path id="Path_1136" data-name="Path 1136" d="M433.571,329.006h17.921L445.715,360.5H433.573Z" fill="#ffb8b8"/>
      <path id="Path_1137" data-name="Path 1137" d="M567.155,615.227H591.07a15.239,15.239,0,0,1,15.239,15.239v.5H567.156Z" transform="translate(-136.679 -258.694)" fill="#2f2e41"/>
      <path id="Path_1138" data-name="Path 1138" d="M583.356,605.275q-.212,0-.426-.02l-16.8-1.224a4.457,4.457,0,0,1-3.773-5.972l22.489-50.526a3.464,3.464,0,0,0-.194-2.772,3.418,3.418,0,0,0-2.19-1.743c-10.575-2.764-37.708-10.125-61.2-18.737-10.063-3.69-16.4-9.022-18.837-15.849-3.212-9,1.54-17.208,1.744-17.552l.159-.27,22.1,2.009,23.96,2.038L602.9,522.813a19.894,19.894,0,0,1,8.734,25.537l-24.207,54.283a4.454,4.454,0,0,1-4.068,2.642Z" transform="translate(-136.679 -258.694)" fill="#2f2e41"/>
      <path id="Path_1139" data-name="Path 1139" d="M498.685,413.088a11.061,11.061,0,0,1,14.126-2.758h0a11.061,11.061,0,0,1,4.954,13.37l-6.656,18.488-27.261-10.359Z" transform="translate(-136.679 -258.694)" fill="#e95f71"/>
      <path id="Path_1140" data-name="Path 1140" d="M553.188,505.082a4.917,4.917,0,0,1-3.978.77l-41.973-9.984a4.837,4.837,0,0,1-3.086-2.287,5.073,5.073,0,0,1-.479-3.945c4.526-15.692-1.409-35.143-8.5-53.826a25.756,25.756,0,0,1,14.083-27.324l.114-.055,22.037,1.112a24.752,24.752,0,0,1,16.408,14.044c8.494,19.879,10.926,45.387,7.434,77.981a4.951,4.951,0,0,1-2.064,3.515Z" transform="translate(-136.679 -258.694)" fill="#e95f71"/>
      <circle id="Ellipse_33" data-name="Ellipse 33" cx="24.326" cy="24.326" r="24.326" transform="matrix(0.16, -0.987, 0.987, 0.16, 352.139, 137.293)" fill="#ffb8b8"/>
      <path id="Path_1141" data-name="Path 1141" d="M549.74,458.622l-16.257-11.587,11.6-15.185,10.471,6.028,42.075-24.273a10.477,10.477,0,0,1,.227-1.438,10.895,10.895,0,1,1,8.113,13.1,10.427,10.427,0,0,1-1.026-.3l-42.266,33.344A10.837,10.837,0,0,1,549.74,458.622Z" transform="translate(-136.679 -258.694)" fill="#ffb8b8"/>
      <path id="Path_1142" data-name="Path 1142" d="M521.474,428.863a11.061,11.061,0,0,1,5.838-13.155h0a11.061,11.061,0,0,1,13.8,3.605l11.333,16.052-24.116,16.4Z" transform="translate(-136.679 -258.694)" fill="#e95f71"/>
      <path id="Path_1143" data-name="Path 1143" d="M525.705,372.353a4.395,4.395,0,0,1-.589,5.137c-3.455,3.908-4.377,9.958-3.132,15.168,1.495,6.252,5.463,11.581,9.382,16.678s7.974,10.331,9.695,16.525c4.075,14.664-6.872,30.3-20.939,36.111s-30.087,3.97-44.9.469c-11.179-2.642-22.715-6.528-30.36-15.1s-9.674-23.088-1.549-31.208c6.369-6.366,16.286-6.878,25.148-8.473s18.9-6.294,20.087-15.22c1.18-8.869-7.13-16.2-8.695-25.008-1.946-10.954,7.582-21.392,18.363-24.14s22.153.3,32.6,4.141c8.033,2.951,16.435,6.8,19.492,15.544,1.7,4.862.379,10.4-3.814,13.4-6.386,4.557-14.6.158-20.847-4.121Z" transform="translate(-136.679 -258.694)" fill="#2f2e41"/>
    </g>
  </g>
</svg>
